<?xml version="1.0" standalone="no"?>
<!DOCTYPE svg PUBLIC "-//W3C//DTD SVG 20010904//EN"
 "http://www.w3.org/TR/2001/REC-SVG-20010904/DTD/svg10.dtd">
<svg version="1.0" xmlns="http://www.w3.org/2000/svg"
 width="32.000000pt" height="32.000000pt" viewBox="0 0 32.000000 32.000000"
 preserveAspectRatio="xMidYMid meet">

<g transform="translate(0.000000,32.000000) scale(0.100000,-0.100000)"
fill="#000000" stroke="none">
<path d="M93 273 c-7 -2 -13 -10 -13 -16 0 -14 65 -15 93 -3 24 11 38 -4 48
-51 l8 -38 -3 43 c-6 59 -19 72 -75 71 -25 0 -52 -3 -58 -6z"/>
<path d="M87 233 c-11 -10 -8 -41 4 -49 6 -3 18 1 27 9 13 13 13 19 2 31 -14
17 -23 20 -33 9z"/>
<path d="M155 230 c-11 -17 5 -51 23 -48 23 4 23 52 0 56 -9 2 -19 -2 -23 -8z"/>
<path d="M110 159 c0 -14 19 -21 40 -14 11 4 18 10 15 14 -6 11 -55 11 -55 0z"/>
<path d="M67 150 c-16 -49 -15 -63 8 -86 20 -20 34 -24 79 -24 48 0 58 3 72
25 9 14 15 27 13 29 -10 9 -102 36 -124 36 -13 0 -28 8 -34 18 -8 14 -10 15
-14 2z"/>
<path d="M246 145 c4 -8 8 -15 10 -15 2 0 4 7 4 15 0 8 -4 15 -10 15 -5 0 -7
-7 -4 -15z"/>
</g>
</svg>
